<svg id="Capa_1" enable-background="new 0 0 512 512" height="512" viewBox="0 0 512 512" width="512" xmlns="http://www.w3.org/2000/svg"><g><ellipse cx="256" cy="79.982" fill="#738b95" rx="150.715" ry="72.482"/><path d="m342.636 20.665c15.235 11.326 24.08 24.824 24.08 39.317 0 40.031-67.478 72.482-150.715 72.482-32.246 0-62.127-4.87-86.636-13.165 26.846 19.957 73.533 33.165 126.636 33.165 83.238 0 150.715-32.451 150.715-72.482 0-24.523-25.324-46.201-64.08-59.317z" fill="#617881"/><path d="m105.285 188.196c0 40.031 67.478 72.482 150.715 72.482s150.715-32.451 150.715-72.482v-108.214c0 40.031-67.478 72.482-150.715 72.482s-150.715-32.451-150.715-72.482z" fill="#475959"/><path d="m105.285 237.508c0 40.031 67.478 72.482 150.715 72.482s150.715-32.451 150.715-72.482v-49.312c0 40.031-67.478 72.482-150.715 72.482s-150.715-32.451-150.715-72.482z" fill="#f4dd45"/><path d="m105.285 432.018c0 40.031 67.478 72.482 150.715 72.482s150.715-32.451 150.715-72.482v-194.51c0 40.031-67.478 72.482-150.715 72.482s-150.715-32.451-150.715-72.482z" fill="#e4936b"/><path d="m366.716 237.375v49.312c24.829-12.921 40-30.198 40-49.179v-49.312c0 18.981-15.172 36.257-40 49.179z" fill="#eab14d"/><path d="m366.716 129.161v108.214c24.829-12.921 40-30.198 40-49.179v-108.214c0 18.981-15.172 36.258-40 49.179z" fill="#404a4a"/><path d="m366.716 286.687v125.331c0 40.031-67.478 72.482-150.715 72.482-32.246 0-62.127-4.87-86.636-13.165 26.845 19.957 73.533 33.165 126.635 33.165 83.238 0 150.715-32.451 150.715-72.482v-194.51c.001 18.981-15.171 36.257-39.999 49.179z" fill="#e27d47"/><path d="m212.447 28.445c0 11.568 19.499 20.945 43.553 20.945s43.553-9.378 43.553-20.945v42.663c0 11.568-19.499 20.945-43.553 20.945s-43.553-9.378-43.553-20.945z" fill="#dfeaef"/><g fill="#f1f4f6"><ellipse cx="256" cy="28.445" rx="43.553" ry="20.945"/><path d="m299.553 40.467v30.641c0 11.568-19.499 20.945-43.553 20.945s-43.553-9.378-43.553-20.945v-30.641c-29.401 7.511-49.424 22.388-49.424 39.515 0 24.695 41.627 44.714 92.976 44.714s92.976-20.019 92.976-44.714c.002-17.127-20.021-32.004-49.422-39.515z"/><path d="m284.65 193.615h-15.694v-15.694h-25.911v15.694h-15.695v25.911h15.695v15.694h25.911v-15.694h15.694z"/></g><path d="m247.683 424-17.756 49.719c-.824 2.307.886 4.734 3.336 4.734h11.317c1.211 0 2.338-.619 2.988-1.64l48.075-75.513c2.193-3.444-.281-7.952-4.364-7.952h-18.165c-3.577 0-6.075-3.544-4.872-6.913l15.134-42.376c1.203-3.369-1.294-6.913-4.872-6.913h-31.09c-2.186 0-4.137 1.374-4.872 3.433l-26.698 74.758c-1.203 3.369 1.294 6.913 4.872 6.913h25.734c.906 0 1.538.897 1.233 1.75z" fill="#f4dd45"/><path d="m268.955 170.421h-25.91c-4.142 0-7.5 3.357-7.5 7.5v8.194h-8.195c-4.142 0-7.5 3.357-7.5 7.5v25.91c0 4.143 3.358 7.5 7.5 7.5h8.195v8.195c0 4.143 3.358 7.5 7.5 7.5h25.91c4.143 0 7.5-3.357 7.5-7.5v-8.195h8.195c4.143 0 7.5-3.357 7.5-7.5v-25.91c0-4.143-3.357-7.5-7.5-7.5h-8.195v-8.194c0-4.143-3.357-7.5-7.5-7.5zm8.196 30.694v10.91h-8.195c-4.143 0-7.5 3.357-7.5 7.5v8.195h-10.91v-8.195c0-4.143-3.358-7.5-7.5-7.5h-8.195v-10.91h8.195c4.142 0 7.5-3.357 7.5-7.5v-8.194h10.91v8.194c0 4.143 3.357 7.5 7.5 7.5z"/><path d="m311.542 407.799c0 4.143 3.357 7.5 7.5 7.5s7.5-3.357 7.5-7.5c0-25.676-13.923-49.122-35.999-61.522 2.689-8.183-3.413-16.632-12.039-16.632h-31.089c-5.342 0-10.138 3.38-11.935 8.41l-.899 2.516c-10.774 3.441-20.646 9.499-28.641 17.535l-6.604-6.604c-2.929-2.928-7.678-2.928-10.606 0-2.929 2.93-2.929 7.678 0 10.607l12.24 12.24c3.19 3.189 8.448 2.858 11.216-.689 4.269-5.47 9.533-10.081 15.437-13.601l-18.84 52.756c-2.944 8.244 3.181 16.936 11.935 16.936h16.949l-9.364 26.22c-17.135-9.808-27.844-27.977-27.844-48.171 0-4.143-3.358-7.5-7.5-7.5s-7.5 3.357-7.5 7.5c0 26.567 14.595 50.371 37.736 62.475l-.33.924c-2.564 7.183 2.771 14.756 10.4 14.756h11.317c3.794 0 7.276-1.911 9.315-5.113l1.592-2.5c18.817.148 37.226-7.096 50.984-21.241l6.544 6.544c2.93 2.928 7.678 2.928 10.607 0 2.929-2.93 2.929-7.678 0-10.607l-12.24-12.24c-3.214-3.212-8.508-2.846-11.258.743-8.641 11.281-20.907 18.645-34.573 20.993l36.419-57.204c5.363-8.426-.703-19.479-10.691-19.479h-14.863l8.993-25.181c16.094 10.046 26.131 27.784 26.131 47.129zm-24.502-6.951c-39.114 61.439 39.714-62.382-44.632 70.105h-3.53c15.443-43.243 15.819-44.335 15.87-44.436 2.041-5.729-2.214-11.768-8.298-11.768h-22.433c2.837-7.944 9.198-25.755 25.036-70.104h26.148l-14.023 39.267c-2.943 8.244 3.182 16.936 11.936 16.936z"/><path d="m406.715 380.299c4.143 0 7.5-3.357 7.5-7.5v-292.818c0-44.849-69.496-79.981-158.215-79.981s-158.215 35.132-158.215 79.981v57.482c0 4.143 3.358 7.5 7.5 7.5s7.5-3.357 7.5-7.5v-22.912c25.078 27.082 79.132 45.412 143.215 45.412s118.136-18.33 143.215-45.412v73.644c0 35.224-65.584 64.982-143.215 64.982s-143.215-29.759-143.215-64.982v-15.731c0-4.143-3.358-7.5-7.5-7.5s-7.5 3.357-7.5 7.5v259.555c0 44.849 69.496 79.981 158.215 79.981s158.215-35.132 158.215-79.981v-24.22c0-4.143-3.357-7.5-7.5-7.5s-7.5 3.357-7.5 7.5v24.22c0 35.223-65.584 64.981-143.215 64.981s-143.215-29.758-143.215-64.981v-159.941c25.078 27.082 79.132 45.412 143.215 45.412s118.136-18.33 143.215-45.411v100.721c0 4.141 3.358 7.499 7.5 7.499zm-186.767-331.336c19.36 10.547 52.587 10.633 72.105 0v22.146c0 4.563-12.726 13.445-36.053 13.445s-36.053-8.882-36.053-13.445v-22.146zm72.105-20.518c0 4.563-12.726 13.445-36.053 13.445s-36.053-8.882-36.053-13.445 12.726-13.445 36.053-13.445 36.053 8.882 36.053 13.445zm-36.053 116.519c-77.631 0-143.215-29.758-143.215-64.982 0-27.567 40.171-51.786 94.849-61.012-1.747 2.94-2.686 6.123-2.686 9.476v6.31c-31.072 9.215-49.424 25.885-49.424 45.226 0 14.984 11.18 28.613 31.481 38.377 38.375 18.457 99.594 18.466 137.99 0 20.301-9.764 31.481-23.393 31.481-38.377 0-4.143-3.357-7.5-7.5-7.5s-7.5 3.357-7.5 7.5c0 17.603-35.104 37.215-85.477 37.215s-85.477-19.612-85.477-37.215c0-11.032 13.489-22.34 34.424-29.473v20.6c0 16.217 21.948 28.445 51.053 28.445 29.104 0 51.053-12.229 51.053-28.445v-20.607c6.56 2.225 12.485 4.879 17.453 7.834 3.545 2.108 8.154.963 10.28-2.612 2.117-3.56.947-8.162-2.612-10.28-7.183-4.272-15.613-7.856-25.121-10.685v-6.313c0-3.354-.94-6.537-2.686-9.476 54.677 9.227 94.848 33.445 94.848 61.012.001 35.224-65.583 64.982-143.214 64.982zm0 157.525c-77.631 0-143.215-29.758-143.215-64.981v-14.742c25.08 27.081 79.135 45.412 143.215 45.412 64.081 0 118.135-18.331 143.215-45.412v14.742c0 35.223-65.584 64.981-143.215 64.981z"/></g></svg>